# xmcd
#
# Track frame offsets: 
#        150
#        14047
#        19322
#        23030
#        29830
#        33615
#        36397
#        39410
#        45122
#        49162
#        53610
#        58435
#        62460
#        69822
#        81690
#        86550
#        109200
#        116570
#        120627
#        125367
#        130092
#        133852
#        143805
#        148562
#        152915
#        160720
#        187945
#        191835
#        197935
#        202692
#        207335
#        214107
#
# Disc length: 3080 seconds
#
# Revision: 2
# Processed by: cddbd v1.5.2PL0 Copyright (c) Steve Scherf et al.
# Submitted via: ExactAudioCopy v1.0b3
#
DISCID=d90c0620
DTITLE=Glenn Gould - Bach: Goldberg Variations
DYEAR=1981
DGENRE=classic
TTITLE0=Goldberg Variations Theme:Aria
TTITLE1=Variation 1
TTITLE2=Variation 2
TTITLE3=Variation 3
TTITLE4=Variation 4
TTITLE5=Variation 5
TTITLE6=Variation 6
TTITLE7=Variation 7
TTITLE8=Variation 8
TTITLE9=Variation 9
TTITLE10=Variation 10
TTITLE11=Variation 11
TTITLE12=Variation 12
TTITLE13=Variation 13
TTITLE14=Variation 14
TTITLE15=Variation 15
TTITLE16=Variation 16
TTITLE17=Variation 17
TTITLE18=Variation 18
TTITLE19=Variation 19
TTITLE20=Variation 20
TTITLE21=Variation 21
TTITLE22=Variation 22
TTITLE23=Variation 23
TTITLE24=Variation 24
TTITLE25=Variation 25
TTITLE26=Variation 26
TTITLE27=Variation 27
TTITLE28=Variation 28
TTITLE29=Variation 29
TTITLE30=Variation 30
TTITLE31=Aria
EXTD=YEAR: 1981
EXTT0=
EXTT1=
EXTT2=
EXTT3=
EXTT4=
EXTT5=
EXTT6=
EXTT7=
EXTT8=
EXTT9=
EXTT10=
EXTT11=
EXTT12=
EXTT13=
EXTT14=
EXTT15=
EXTT16=
EXTT17=
EXTT18=
EXTT19=
EXTT20=
EXTT21=
EXTT22=
EXTT23=
EXTT24=
EXTT25=
EXTT26=
EXTT27=
EXTT28=
EXTT29=
EXTT30=
EXTT31=
PLAYORDER=
